<svg width="29" height="40" viewBox="0 0 29 40" fill="none" xmlns="http://www.w3.org/2000/svg">
<g clip-path="url(#clip0_2_3)">
<path d="M13.4083 20.9083H7.72833V17.7267H13.4117V20.91L13.4083 20.9083ZM19.0917 0V10H29.0917L19.0917 0ZM21.3633 17.7267H15.68V20.91H21.3633V17.7267ZM21.3633 23.1817H15.68V26.365H21.3633V23.1817ZM29.09 10.8333V37.2733C29.09 38.78 27.87 40 26.3633 40H2.72667C2.3686 40 2.01403 39.9295 1.68322 39.7924C1.3524 39.6554 1.05182 39.4546 0.798622 39.2014C0.287273 38.69 0 37.9965 0 37.2733V2.72667C0 1.22 1.22 0 2.72667 0H18.2567V10.8333H29.09ZM23.635 15.455H5.45333V28.6367H23.6367V15.4533L23.635 15.455ZM13.4083 23.1817H7.72833V26.365H13.4117V23.1817H13.4083Z" fill="#34A853"/>
</g>
<defs>
<clipPath id="clip0_2_3">
<rect width="29" height="40" fill="white"/>
</clipPath>
</defs>
</svg>
